<svg xmlns="http://www.w3.org/2000/svg" viewBox="0 0 810.33 673.63"><defs><style>.cls-1{isolation:isolate;}.cls-18,.cls-2{fill:#e2e2e2;}.cls-11,.cls-12,.cls-13,.cls-14,.cls-17,.cls-18,.cls-19,.cls-2,.cls-5,.cls-6,.cls-7,.cls-8,.cls-9{stroke:#0d101c;}.cls-11,.cls-12,.cls-13,.cls-14,.cls-16,.cls-17,.cls-18,.cls-19,.cls-2,.cls-5,.cls-6,.cls-7,.cls-8,.cls-9{stroke-miterlimit:10;}.cls-11,.cls-12,.cls-16,.cls-17,.cls-19,.cls-2,.cls-5,.cls-6,.cls-7,.cls-9{stroke-width:2px;}.cls-3{fill:#b8bae0;}.cls-12,.cls-13,.cls-3{mix-blend-mode:multiply;}.cls-4{fill:#1f1d23;}.cls-5{fill:#960b00;}.cls-6{fill:#c94800;}.cls-14,.cls-7{fill:#403c47;}.cls-10,.cls-12,.cls-13,.cls-8,.cls-9{fill:none;}.cls-11{fill:#2d2929;}.cls-15{fill:#005652;}.cls-16{fill:#00adab;stroke:#007774;}.cls-17,.cls-20{fill:#0d101c;}.cls-19{fill:#817e89;}.cls-21,.cls-22,.cls-23,.cls-25,.cls-26{fill:#ffefdc;}.cls-21,.cls-22,.cls-23,.cls-24,.cls-26{mix-blend-mode:screen;}.cls-22{opacity:0.29;}.cls-23{opacity:0.36;}.cls-26{opacity:0.11;}</style></defs><title>error_529</title><g class="cls-1"><g id="Layer_7" data-name="Layer 7"><path class="cls-2" d="M244,566c1,0,30-6,37-3,0,0,4,9,2,15,0,0-12,3-14,11,0,0-3,9-12,7Z" transform="translate(-104.11 -165.4)"/><path class="cls-3" d="M244,566c1,0,30-6,37-3,0,0,4,9,2,15,0,0-12,3-14,11,0,0-3,9-12,7Z" transform="translate(-104.11 -165.4)"/><path class="cls-4" d="M171,580s9,12,9,13-2,24-2,24-8,2-9,2-5-9-5-9l-4-22c3-9,11-8,11-8" transform="translate(-104.11 -165.4)"/><path class="cls-4" d="M399,563s-14,38,1,50c0,0,16.75-13.25,9.38-39.62,0,0-4.37-9.37-6.37-10.37Z" transform="translate(-104.11 -165.4)"/><path class="cls-2" d="M403,562c-50-14-80,2-80,2-13,15,4,38,4,38,25,14,78,13,78,13C421,581,403,562,403,562Zm1,52s-17-32-1-51C403,563,421,581,404,614Z" transform="translate(-104.11 -165.4)"/><path class="cls-5" d="M399,599a15.14,15.14,0,0,1,13,3l-8,10A19.62,19.62,0,0,1,399,599Z" transform="translate(-104.11 -165.4)"/><path class="cls-6" d="M396.83,591.67S407,589,414,595l-4.75,5.75a9.67,9.67,0,0,0-10.83-1.67S396.67,593.33,396.83,591.67Z" transform="translate(-104.11 -165.4)"/><path class="cls-7" d="M397.88,573.13c.18,0,12.13-4.12,17.13-2.12l1,5s-15,0-19,4C397,580,397,573,397.88,573.13Z" transform="translate(-104.11 -165.4)"/><path class="cls-2" d="M243,564s-51,2-79,17c0,0-7.5,7.5-8.5,11.5,0,0,10,6,1,9,0,0,5,2,3,5,0,0,8,0,3,5,0,0,3,8,7,8l2.5-.5s74,3,92-8C264,611,276,568,243,564Zm-71.5,54.5c-4,0-8-14-8-14-4-19,2-22,2-22,7-2,10,14,10,14C178.5,614.5,171.5,618.5,171.5,618.5Z" transform="translate(-104.11 -165.4)"/><path class="cls-5" d="M175.5,606.5s-22,7-16,17a10.82,10.82,0,0,0,6,4v-3s-4-2-4-5c0,0,1-7,14-9C175.5,610.5,176.5,607.5,175.5,606.5Z" transform="translate(-104.11 -165.4)"/><path class="cls-6" d="M175.33,609.42s-13.9,5.27-10.75,13.21c0,0,2.1,5,14.07,3.73a14.39,14.39,0,0,0-2.06-3s-7,.13-8.06-2.85c0,0-1.08-4,5.88-6.11C174.43,614.44,176.35,610.4,175.33,609.42Z" transform="translate(-104.11 -165.4)"/></g><g id="Layer_6" data-name="Layer 6"><path class="cls-2" d="M263,608c0-1,49-20,58-21,0,0,42-8,44,38,0,0-26,32-94,44,0,0-11,2-15-8Z" transform="translate(-104.11 -165.4)"/><path class="cls-8" d="M262,625s14,1,17,20c0,0,3,18-9,24" transform="translate(-104.11 -165.4)"/><path class="cls-2" d="M152,655s57-32,79-32c0,0,48-7,36,46,0,0-60,24-87,27C180,696,150,703,152,655Z" transform="translate(-104.11 -165.4)"/><path class="cls-7" d="M172,667s-6-12-18-9l-3,15,13,2Z" transform="translate(-104.11 -165.4)"/><path class="cls-7" d="M495,576s-26,0-35,1c0,0-52,5-57,35,0,0-9,28,15,48l33,15Z" transform="translate(-104.11 -165.4)"/><path class="cls-2" d="M650,608c1,0,35,16,17,53,0,0-5,9-11,9Z" transform="translate(-104.11 -165.4)"/><path class="cls-2" d="M437,666s40,34,120,36c0,0,43.5,2.5,104.5-33.5,0,0,15-43-19-74,0,0-35-31-150-22,0,0,2,13-55,23,0,0-24,2-21,36C416.5,631.5,419.5,653.5,437,666Z" transform="translate(-104.11 -165.4)"/><path class="cls-4" d="M649,646s-5-20-26-19-30,26-30,26-2,34,20,36,29.13-5,36.57-20C649.57,669,654,653,649,646Z" transform="translate(-104.11 -165.4)"/><line class="cls-9" x1="603.89" y1="520.6" x2="613.89" y2="524.6"/><line class="cls-9" x1="519.89" y1="560.6" x2="527.89" y2="562.6"/><line class="cls-6" x1="514.89" y1="564.6" x2="528.89" y2="568.6"/><path class="cls-2" d="M453,663s-3,26,8,39c0,0,44,19,75,3,0,0,25-23,3-53,0,0-17-21-44-12C495,640,483,668,453,663Z" transform="translate(-104.11 -165.4)"/><path class="cls-10" d="M769,686s-4-11-20-6l-2-4s16-6,24,3S769,686,769,686Z" transform="translate(-104.11 -165.4)"/><path class="cls-10" d="M773,678s-7-10-18-7l-2-4s13-5,22,5l-2,7" transform="translate(-104.11 -165.4)"/><path class="cls-7" d="M618.75,624C600.66,624,586,639,586,657.5S600.66,691,618.75,691s32.75-15,32.75-33.5S636.84,624,618.75,624Zm6,65c-13.95,0-25.57-13.55-25.25-30.25.33-17.19,11.55-29.8,25.25-30.25C640,628,651,642.29,651,659S638.7,689,624.75,689Z" transform="translate(-104.11 -165.4)"/><path class="cls-5" d="M600,653s22-9,38,0c0,0,7,3,14,22,0,0,4,14,31,3,0,0,16-7,29,1,0,0,0,7-3,10,0,0-12-4-23,1,0,0-23,12-39,0,0,0-9-8.19-11-18-2-10-25-13-32-5C604,667,600,664,600,653Z" transform="translate(-104.11 -165.4)"/><path class="cls-11" d="M600,656s22-5,36,9c0,0,12.5,9.5.5,34.5,0,0-7,12,15,13,0,0,25-2,19-15,0,0,5-6,12,0,0,0,6,15-13,24,0,0-29,11-43-4,0,0-11-11,1-28,0,0,7-12-4-18,0,0-11-4-18-1l-5.09-3.5S598.5,656.5,600,656Z" transform="translate(-104.11 -165.4)"/><path class="cls-6" d="M600,661c.12-1,16,6,22,18,0,0,6,11-7,24,0,0-14,15,14,21,0,0-3,9-6,10,0,0-40-8-22-32,2-2,16.48-16.77,5-24C605.15,677.47,599,669,600,661Z" transform="translate(-104.11 -165.4)"/><path class="cls-2" d="M172.5,693.5S150,706,143,707c0,0-23.5,6.5-34-10-.54-.84-7-86-2-100,0,0,2-14,15-13,0,0,10.5-2.5,35,85,0,0,11.5-8.5,15.5-3.5C172.5,665.5,182.5,675.5,172.5,693.5Z" transform="translate(-104.11 -165.4)"/><path class="cls-8" d="M110.18,589.31C135.35,569.62,144.5,706.5,144.5,706.5" transform="translate(-104.11 -165.4)"/><line class="cls-9" x1="1.89" y1="484.6" x2="34.58" y2="488.4"/><path class="cls-12" d="M138.69,653.81s9.33-2.21,11.82-7" transform="translate(-104.11 -165.4)"/><path class="cls-13" d="M154,655s21-9,29,11c0,0,6.89,19.68-6.06,30.34" transform="translate(-104.11 -165.4)"/><path class="cls-2" d="M267,624s-3-8,15-14c0,0-14-9-24-6,0,0-44,14-40,23,0,0,11,9,32,7C250,634,262,630,267,624Z" transform="translate(-104.11 -165.4)"/><path class="cls-3" d="M199,677l-14.33,4S186,659.59,172,654.3c0,0-8.53-3.54-18.76,1.58l.76,2.56s10-3.44,16.5,5.06c0,0,13.82,8.91,2.16,29.71s-.16.29-.16.29l-2.5,2c-.13-.72,14.31,2.91,31-3.52Z" transform="translate(-104.11 -165.4)"/><polygon class="cls-3" points="68.89 453.6 72.89 445.6 82.89 445.6 84.89 453.6 68.89 453.6"/><path class="cls-3" d="M210,610l1.38,9.12" transform="translate(-104.11 -165.4)"/><path class="cls-3" d="M212,619h11s34-16,37-16l5.45.6.63-6.26A191,191,0,0,1,210,610" transform="translate(-104.11 -165.4)"/></g><g id="Layer_4" data-name="Layer 4"><line class="cls-9" x1="652.89" y1="504.6" x2="643.89" y2="506.6"/><line class="cls-9" x1="651.89" y1="502.6" x2="646.89" y2="503.6"/><path class="cls-5" d="M773,678s-7-10-18-7l-2-4s13-5,22,5l-2,7" transform="translate(-104.11 -165.4)"/><path class="cls-6" d="M769,686s-4-11-20-6l-2-4s16-6,24,3S769,686,769,686Z" transform="translate(-104.11 -165.4)"/><path class="cls-2" d="M801,728s-20-19-26-24c0,0-30-40,22-59,0,0,21-8,42,15,0,0,21,18,30,72,0,0,1,22-26,23Z" transform="translate(-104.11 -165.4)"/><path class="cls-8" d="M800,724s9-23,36-21,31,16,33,29" transform="translate(-104.11 -165.4)"/><path class="cls-14" d="M820,723s27-9,37,7l2.5,11.5S861,755,841,756Z" transform="translate(-104.11 -165.4)"/><path class="cls-2" d="M727,768s39-41,71-49c0,0,48-12,49,48,0,0-16,28-80,33Z" transform="translate(-104.11 -165.4)"/><path class="cls-7" d="M687,771s-27,8-30,11c0,0-4,11,7,14l27-16Z" transform="translate(-104.11 -165.4)"/><path class="cls-2" d="M684,777s0-8,7-10c0,0,20-5,41,0,0,0,32,6,39,22,0,0,6,19-5,20,0,0-20-5-29-5Z" transform="translate(-104.11 -165.4)"/><path class="cls-7" d="M702,781s-4-12-17-7c0,0-13,5-18,11,0,0-9,12-10,27,0,0,2,14,24,7Z" transform="translate(-104.11 -165.4)"/><path class="cls-7" d="M729,790s-11-15-27-10c0,0-12,5-17,12,0,0-9,23-8,27,0,0,3,12,23,5l29-33" transform="translate(-104.11 -165.4)"/><path class="cls-15" d="M190,715s39,3,53,14C243,729,214,727,190,715Z" transform="translate(-104.11 -165.4)"/><polygon class="cls-16" points="55.89 286.6 102.89 553.6 125.89 559.6 77.89 286.6 55.89 286.6"/><path class="cls-14" d="M152,460l10-21-10-15.11S145,440,145,456C145,456,149,460,152,460Z" transform="translate(-104.11 -165.4)"/><path class="cls-8" d="M150.51,459.72C152,453.44,158,439,158,439" transform="translate(-104.11 -165.4)"/><path class="cls-7" d="M152,422c-1-.26,5,31,5,31s15,5,27,0l-8-32S163,425,152,422Z" transform="translate(-104.11 -165.4)"/><path class="cls-2" d="M393,633s21,31,28,91c0,0,2,21-34,28,0,0-45,11-84,5,0,0-28,0-33-31,0,0,1-53,19-84,0,0,12-20,54-20C343,622,385,622,393,633Z" transform="translate(-104.11 -165.4)"/><path class="cls-17" d="M401,648.13S361,641,329,658c0,0-11,8-8,24,0,0,2,18,2,39,0,0-1,19,12,22,0,0,61.66,3.77,85.83-16.12a265.2,265.2,0,0,0-10.79-55Z" transform="translate(-104.11 -165.4)"/><path class="cls-16" d="M350,688s-2-12,8-12c0,0,9,0,8,9,0,0-1,7-6,8l3,14,5-1-2-11s9-5,5-16c0,0-3-9-12-9,0,0-14-1-14,15C345,685,345,688,350,688Z" transform="translate(-104.11 -165.4)"/><circle class="cls-16" cx="262.89" cy="549.6" r="4"/><circle class="cls-16" cx="289.89" cy="544.6" r="4"/><path class="cls-16" d="M390,702l4-1s-2-28-5-33l-8,1S385,691,390,702Z" transform="translate(-104.11 -165.4)"/><path class="cls-7" d="M307,685s-4,32-4,52a9.78,9.78,0,0,1-10,5s-17-1-25-7c0,0-8-4-8-13,0,0-2-32,10-45,0,0,16-4,31,2C301,679,307,681,307,685Z" transform="translate(-104.11 -165.4)"/><path class="cls-2" d="M299,686.83s-3.32,30.35-3.32,49.32c0,0-2.49,5.69-8.3,4.74,0,0-14.11-.95-20.76-6.64A14.57,14.57,0,0,1,260,721.92s-1.66-30.35,8.3-42.68c0,0,13.28-3.79,25.74,1.9C294,681.14,299,683,299,686.83Z" transform="translate(-104.11 -165.4)"/><path class="cls-2" d="M308,643s-2-55-3-58h-2s-3,36-1,58C302,643,305,647,308,643Z" transform="translate(-104.11 -165.4)"/><circle class="cls-2" cx="199.39" cy="417.1" r="5.5"/><path class="cls-7" d="M176,421c.87-.49-18-101-18-101s-13-5-21,2l17,101S167,426,176,421Z" transform="translate(-104.11 -165.4)"/><path class="cls-8" d="M176,455c-1-19-6-31-6-31" transform="translate(-104.11 -165.4)"/><path class="cls-7" d="M176,422s17,12,28,30c0,0,0,10-6,12l-22-19S169,430,176,422Z" transform="translate(-104.11 -165.4)"/><path class="cls-8" d="M196.13,462.39S199,462,201,453c0,0-15.74-22.06-26.87-28" transform="translate(-104.11 -165.4)"/><path class="cls-14" d="M498,806s-13,13-45,8c0,0-17-2-22-10a41.21,41.21,0,0,1-1-19s2-8,15-11l54,9Z" transform="translate(-104.11 -165.4)"/><path class="cls-2" d="M445,772c1.25-.66,36-16,36-16a34.63,34.63,0,0,1,19,0c1,.29,60,24,71,38,0,0,17,17,8,39l-6,5s-53-5-76-24c0,0-18,8-36,1,0,0,30-2,36-9a23,23,0,0,0-4-21s-36.5,6.5-46.5-.5C446.5,784.5,434.5,777.5,445,772Z" transform="translate(-104.11 -165.4)"/><path class="cls-8" d="M443.5,773.5s3,23,63.5-.5c0,0,31,8,60,24,0,0,9,17,6,41" transform="translate(-104.11 -165.4)"/><path class="cls-9" d="M513.49,823.68s-7.88-34.25,3.57-47.72c0,0,7.41-5.93,13.43-6.7" transform="translate(-104.11 -165.4)"/><path class="cls-8" d="M566.5,796.5c1,1,3.13.36,5.56-1.32" transform="translate(-104.11 -165.4)"/><path class="cls-8" d="M493.43,785.55s-22.93,17-50.93,9c0,0-15.82-5.17-10.91-12.59" transform="translate(-104.11 -165.4)"/><path class="cls-7" d="M747,803s-2-15-20-14a51.87,51.87,0,0,0-20,10s-10,19-9,25c0,0,8,13,22,4l8-18s15-3,19-6Z" transform="translate(-104.11 -165.4)"/><path class="cls-7" d="M728,810s-10-16-21-11" transform="translate(-104.11 -165.4)"/><path class="cls-9" d="M706,798s-9-11-22-7" transform="translate(-104.11 -165.4)"/><path class="cls-7" d="M685,791s-8-11-18-6" transform="translate(-104.11 -165.4)"/><path class="cls-13" d="M746.5,804.5A8.53,8.53,0,0,0,751,799s-11.34-22.92-64.17-29.46" transform="translate(-104.11 -165.4)"/><path class="cls-13" d="M843.5,746.5s12.21-.85,12.85-16.68" transform="translate(-104.11 -165.4)"/><line class="cls-9" x1="644.39" y1="513.6" x2="640.89" y2="514.6"/><path class="cls-2" d="M734,694l8,3,16-5v-4s-2-4-9-3C749,685,738,689,734,694Z" transform="translate(-104.11 -165.4)"/><path class="cls-7" d="M876,770s3-1,2-5c0,0-6-2-9,2C869,767,869,771,876,770Z" transform="translate(-104.11 -165.4)"/><path class="cls-2" d="M899,741l-2-4s11-4,16-2c0,0,1,4,0,7Z" transform="translate(-104.11 -165.4)"/><path class="cls-2" d="M641.24,766.84A42.15,42.15,0,0,1,640,761s-8-7-18-4c0,0-18,6-18,14l5,7,17,1a26.75,26.75,0,0,0,11-5l3.73-4.48A2.78,2.78,0,0,0,641.24,766.84Z" transform="translate(-104.11 -165.4)"/><path class="cls-8" d="M640,761s-10,9-13,10-23,0-23,0" transform="translate(-104.11 -165.4)"/><path class="cls-7" d="M566,755s4,3,5,3l5-3s2-5-2-6C574,749,567,750,566,755Z" transform="translate(-104.11 -165.4)"/><path class="cls-2" d="M580,745l-14-4s2-5,5-5l9-1S589,739,580,745Z" transform="translate(-104.11 -165.4)"/><path class="cls-2" d="M458,726l-6-5a9.78,9.78,0,0,1,10-5s5,2,4,5C466,721,460,727,458,726Z" transform="translate(-104.11 -165.4)"/><path class="cls-2" d="M452,713s5-2,2-8c0,0-9-4-15-2,0,0-5,1-6,3,0,0-1,4,0,5Z" transform="translate(-104.11 -165.4)"/><path class="cls-2" d="M411,787s-3-4-6-3l-24,20-1,4s8,5,14,3l17-20A2.77,2.77,0,0,0,411,787Z" transform="translate(-104.11 -165.4)"/><path class="cls-18" d="M411,787l-19,20c-3,1-11-3-11-3" transform="translate(-104.11 -165.4)"/><line class="cls-18" x1="289.89" y1="645.6" x2="287.89" y2="641.6"/><path class="cls-2" d="M363,800v5s-12,6-19-1l-1-4,10-3S359,797,363,800Z" transform="translate(-104.11 -165.4)"/><path class="cls-18" d="M344,800a18.44,18.44,0,0,0,19,0" transform="translate(-104.11 -165.4)"/><path class="cls-7" d="M413,762c1,0,3,3,3,3l-17,4s-3-2-1-5Z" transform="translate(-104.11 -165.4)"/><path class="cls-7" d="M261,787l7,5a10.76,10.76,0,0,0,5-4s-4-6-8-6C265,782,260,783,261,787Z" transform="translate(-104.11 -165.4)"/><path class="cls-2" d="M237,775l-18,7s-8-2-9-5c0,0,0-1,2-3,0,0,17-4,22-3C234,771,237,773,237,775Z" transform="translate(-104.11 -165.4)"/><path class="cls-2" d="M252,755l-15,2s-4-2-3-6h14S252,752,252,755Z" transform="translate(-104.11 -165.4)"/><path class="cls-7" d="M230,764s2-4-3-4l-1,1Z" transform="translate(-104.11 -165.4)"/></g><g id="Layer_5" data-name="Layer 5"><path class="cls-7" d="M766,545s7,2,12-2c0,0,17.93-11,17.46-16h0L781,531Z" transform="translate(-104.11 -165.4)"/><path class="cls-7" d="M746.75,507.09S742,519,748,531l8-9V511l-9.25-3.91" transform="translate(-104.11 -165.4)"/><path class="cls-7" d="M755,542s4,9,13,4c0,0,15-10,16-12l-19.33-5.75Z" transform="translate(-104.11 -165.4)"/><path class="cls-14" d="M762,547c-1,0-5-4-4-12" transform="translate(-104.11 -165.4)"/></g><g id="Layer_3" data-name="Layer 3"><path class="cls-19" d="M752,550l46.38-68.35L813,479l7-15s-5-5-8-4l-5,9-10,1-5-6,5-9s-3-4-7-3l-9,14,6,8-49,68-12,2-11,17s5,6,9,5l8-11,8-1,5,9-6,11a11.6,11.6,0,0,0,9,4l10-15Z" transform="translate(-104.11 -165.4)"/><path class="cls-8" d="M746,577c1,0,9-14,9-14l-6-14,48.69-69.22L813,477" transform="translate(-104.11 -165.4)"/><path class="cls-2" d="M765,534c-1.13-.85,1-42,1-42s1-10,26-16c0,0,6-1,7,9l2,36a47,47,0,0,1-20,15A15.89,15.89,0,0,1,765,534Z" transform="translate(-104.11 -165.4)"/><path class="cls-19" d="M507,234s-26,30-11,70c0,0,12,26,32,10,0,0,11-8,11-38l15,14s0,40-28,48c0,0-39,10-51-37,0,0-11-46,16-72Z" transform="translate(-104.11 -165.4)"/><path class="cls-2" d="M533,189s-26-5-53,37c0,0,1,21,34,7Z" transform="translate(-104.11 -165.4)"/><path class="cls-9" d="M519,208s-18,28-32,28" transform="translate(-104.11 -165.4)"/><path class="cls-9" d="M504,199s6.21,3,11.61,13.49" transform="translate(-104.11 -165.4)"/><path class="cls-7" d="M538,190s14-15,23-13l1,17s-10,3-15,11Z" transform="translate(-104.11 -165.4)"/><path class="cls-7" d="M580,197s-4-14-14-21c0,0-12-2-13,11,0,0,15,15,17,21Z" transform="translate(-104.11 -165.4)"/><path class="cls-7" d="M536,228s-15,7-25,8c0,0-3-2-4-7,0,0,4-13,17-12Z" transform="translate(-104.11 -165.4)"/><path class="cls-7" d="M523,194s4-8,16-6c0,0,12,16,12,27,0,0,0,7-12,8Z" transform="translate(-104.11 -165.4)"/><path class="cls-2" d="M623,354l7,13s9,12,36,7c0,0,17-3,23-12l1-8Z" transform="translate(-104.11 -165.4)"/><path class="cls-2" d="M544,237l-5-67s.16-2.16,1-3c1-1,2-1,3,2l4.42,60Z" transform="translate(-104.11 -165.4)"/><path class="cls-7" d="M542,247h-5s-13,21,2,38l7.5.88Z" transform="translate(-104.11 -165.4)"/><path class="cls-2" d="M555,222s-17,9-17,39c0,0-.5,22,10.75,32.5Z" transform="translate(-104.11 -165.4)"/><path class="cls-2" d="M762,227s11,10,16,28l-8,49s-11,19-21,22h0l-7,7c2-2-24,33-106,23,0,0-49-5-81-49,0,0-32-53,11-102,0,0,26-31,94-31,0,0,71,0,101,54" transform="translate(-104.11 -165.4)"/><path class="cls-20" d="M559,227s99-28,164,21c0,0-11,46-3,90,0,0-13,14-52,13l-10-16s-34,2-67-9l-1,11s-27-17-34-28C556,309,535,268,559,227Z" transform="translate(-104.11 -165.4)"/><path class="cls-7" d="M525,229s-9-19-15-26c0,0,5-12,17-9,0,0,11,16,12,29C539,223,539.5,231.5,525,229Z" transform="translate(-104.11 -165.4)"/><path class="cls-19" d="M767,302s11,79,8,182c0,0,11,10,19-4,0,0,2-157-9-184Z" transform="translate(-104.11 -165.4)"/><path class="cls-7" d="M771,253c.63-1.26,20,3,20,3s7,28-7,52l-19-4S759,277,771,253Z" transform="translate(-104.11 -165.4)"/><path class="cls-9" d="M784,307s-7-28,7-51" transform="translate(-104.11 -165.4)"/><path class="cls-2" d="M776,254l6-73s2-5,4,0l-3.75,73.22S779,258,776,254Z" transform="translate(-104.11 -165.4)"/><path class="cls-9" d="M777,537l-1-37s-2-8-8-11" transform="translate(-104.11 -165.4)"/><path class="cls-7" d="M768,524l-21-7s-3-7,1-12l17-6S780,501,768,524Z" transform="translate(-104.11 -165.4)"/><polyline class="cls-8" points="616.89 399.6 625.89 387.6 635.39 386.1 639.39 394.1"/><path class="cls-21" d="M478,262s-10,22,9,60c0,0,4,4,2-1,0,0-15-28-10-56C479,265,480,258,478,262Z" transform="translate(-104.11 -165.4)"/><path class="cls-21" d="M778,483l1-81s6.14,48.84,1.57,80.92" transform="translate(-104.11 -165.4)"/></g><g id="Layer_2" data-name="Layer 2"><path class="cls-19" d="M761.5,227.5s-14,6-18,49,6,50,6,50,0,6-7,7c0,0-15-14-8-63,0,0,5-41,23-51C757.5,219.5,762.5,222.5,761.5,227.5Z" transform="translate(-104.11 -165.4)"/><path class="cls-19" d="M719,239c-71-38-150-18-150-18-10,2-12,5-12,5-24,43-4,81-4,81,9,16,36,32,36,32,4,2,4-2,4-2-2-11,2-8,2-8,24,11,55,8,55,8,8,0,10,6,10,6l3,6c2,5,4,5,4,5,28,0,46-8,46-8,11-4,9-11,9-11-6-49,4-81,4-81C729,244,719,239,719,239Zm1,16s-11,34-3,79c0,0,1,4-6,7,0,0-17,7-41,8l-8-14s-1-3-8-3c0,0-34,0-59-8,0,0-7-3-7,2v8s-21-14-31-27c0,0-18-43,3-76,0,0,79-28,157,14C717,245,723,249,720,255Z" transform="translate(-104.11 -165.4)"/><path class="cls-16" d="M585.93,283.66c-1.12-10.43-7.59-18.29-14.46-17.56s-11.52,9.79-10.4,20.23,7.59,18.29,14.46,17.56S587,294.1,585.93,283.66Zm-11.35,11.41c-3.66.39-7.11-3.8-7.71-9.37s1.89-10.4,5.55-10.79,7.11,3.8,7.71,9.37S578.24,294.68,574.58,295.08Z" transform="translate(-104.11 -165.4)"/><path class="cls-16" d="M697.76,295.56c-1.74-11-11.79-19.29-22.45-18.51s-17.89,10.33-16.15,21.33,11.79,19.29,22.45,18.51S699.5,306.56,697.76,295.56Zm-17.62,12c-5.69.41-11-4-12-9.88s2.93-11,8.61-11.38,11,4,12,9.88S685.83,307.18,680.14,307.6Z" transform="translate(-104.11 -165.4)"/><path class="cls-8" d="M480,246s3.5,8.5,17.18,4.71" transform="translate(-104.11 -165.4)"/><path class="cls-8" d="M474.5,265.5s4,9.7,17.5,3.85" transform="translate(-104.11 -165.4)"/><path class="cls-8" d="M473,285.88s8,8.12,18,1.12" transform="translate(-104.11 -165.4)"/><path class="cls-8" d="M476.66,306.66s11.94,5.35,18.89-3.91" transform="translate(-104.11 -165.4)"/><path class="cls-8" d="M501.5,311.5s-3.5,14.44-14.5,14" transform="translate(-104.11 -165.4)"/><path class="cls-8" d="M508.5,318.5s3,11.62-4.5,18.31" transform="translate(-104.11 -165.4)"/><path class="cls-8" d="M517.72,319s9.91,4.4,5.85,19.45" transform="translate(-104.11 -165.4)"/><path class="cls-8" d="M528.5,314.5s12,3,11,16" transform="translate(-104.11 -165.4)"/><path class="cls-8" d="M534,305.48s6.47-5,16,7" transform="translate(-104.11 -165.4)"/><path class="cls-8" d="M537.5,293.5c2-1,8-1,11,2" transform="translate(-104.11 -165.4)"/><path class="cls-8" d="M768.89,318s10.59,6.87,20.35-1.07" transform="translate(-104.11 -165.4)"/><path class="cls-8" d="M770.86,336.45s9.14,8.45,20.14,0" transform="translate(-104.11 -165.4)"/><path class="cls-8" d="M772.54,354.31s8,8.19,19.95,1.19" transform="translate(-104.11 -165.4)"/><path class="cls-8" d="M773.23,371s8.27,9.47,19.27.47" transform="translate(-104.11 -165.4)"/><path class="cls-8" d="M774.21,388s7.25,10.94,19.27,1.71" transform="translate(-104.11 -165.4)"/><path class="cls-8" d="M774.87,407.25a16,16,0,0,0,19.63,1.25" transform="translate(-104.11 -165.4)"/><path class="cls-8" d="M775.5,426.5s8,7,18,0" transform="translate(-104.11 -165.4)"/><path class="cls-8" d="M775.5,443.5c0,.5,7,8,18,0" transform="translate(-104.11 -165.4)"/><path class="cls-8" d="M775.5,458.5c0,2,10.12,7.72,19,0" transform="translate(-104.11 -165.4)"/><path class="cls-8" d="M775.5,474.5c1.29.5,9,7,19-2" transform="translate(-104.11 -165.4)"/></g><g id="Layer_8" data-name="Layer 8"><path class="cls-3" d="M765,304a78.15,78.15,0,0,1-1.39-11.88A115,115,0,0,1,752,304c-.31.27-2.19-14.67-2-30,.21-17.22,2.48-35,2-34-14,30-7.59,71-8.31,71.56A153.26,153.26,0,0,1,728,323c-.48.31-2.9-15.67-3-33-.11-19.51,2.13-40.62,2-40-11,53-4.45,76.32-5.13,76.85C685,356,594.26,336.39,567.69,321.76,587.29,341.1,605,347,623.23,353.38c.93.33,2.77,5.62,2.77,5.62,3,1,17,4,27,4,3.24,0,17,9.5,20,9,8.1-1.35,13.69-5.71,16-10,1.11-2.07,0-5.86.59-6,42.41-7,53.88-24.52,52.41-23,.36-.36,2.22-.22,3-1s3.07-2.07,4-3c1.28-1.28,0-3,0-3,8.67-2.6,18.09-17.22,20.44-21.07Z" transform="translate(-104.11 -165.4)"/><path class="cls-3" d="M548.75,293.5s1.35,49.81-59.7,34.15c0,0,27.95,25.35,53,0,0,0,10.32-15.32,10.15-22.49Z" transform="translate(-104.11 -165.4)"/><path class="cls-3" d="M514.5,319.5s-25.33,3.74-29-30c0,0-3.6-40.69,13-52,0,0-7.11,1-9.55-.5,0,0,18.24-9.52,27.4-24.51l8.15,16s7,1.92,8.5,1c0,0-15,5.54-21.5,6a4,4,0,0,1-2.41-.59L504.72,237s-17.78,20.19-12.5,52.85C492.22,289.85,492.5,314.5,514.5,319.5Z" transform="translate(-104.11 -165.4)"/><path class="cls-3" d="M525,193s3-2,5-1c0,0,12.66,16.64,12.83,29.32L539,223S536,204,525,193Z" transform="translate(-104.11 -165.4)"/><path class="cls-3" d="M545,191c1-1,9-8.59,9-8.59L553,187l7.21,7.65s-9.21,3.17-11.71,8.26l-3.5-5.54Z" transform="translate(-104.11 -165.4)"/><path class="cls-3" d="M791,258s-15,15-6,48C785,306,796,292,791,258Z" transform="translate(-104.11 -165.4)"/><path class="cls-3" d="M787,304l-3,4-6-1.26s15,61.26,7.94,180.42A19.28,19.28,0,0,0,794,480s0-155-6-176" transform="translate(-104.11 -165.4)"/><path class="cls-3" d="M813,479l.93-2-16.25,2.78-2.22-2.8L794,480s-4.3,6.92-10.15,7.46l-10,7.38s3,2.16,3.18,42.16c0,0-10,8-13.56,10.49-.54.38,7.06-2,7.06-2s5.11-.8,5.3-1.15,17.7-12.85,17.7-12.85l2.89-5.35,5.11-4.65L800,499l-1-14-.5-4.5Z" transform="translate(-104.11 -165.4)"/><polygon class="cls-3" points="660.56 362.85 644.89 383.6 650.89 397.6 641.81 412.43 643.89 412.6 653.89 397.6 647.89 383.6 660.78 365.6 660.56 362.85"/><path class="cls-3" d="M770.79,502.57s1.19,14.75-8.3,19.59L768,524S777.57,510.14,770.79,502.57Z" transform="translate(-104.11 -165.4)"/><polygon class="cls-3" points="642.89 352.6 645.14 360.99 650.15 354.02 642.89 352.6"/><path class="cls-3" d="M812,645s27.85,12,38.93,61c0,0-30.39-11.6-47.66,12.2,0,0,14.69-1.79,22.71,4s0-.71,0-.71a39,39,0,0,1,20.1.37S854,725,857,730c0,0,0,14-12.71,16.54,0,0,.51,24.24-74.39,40.35l2.1,6.25s1,8.86-21.5,5.36c0,0-7.19-10.8-13.84-13.15,0,0-5.16,4.56-4.41,3.6S743,792.06,745,797.53c0,0-19.77,3.5-21.88,6.49L714,826s-9.13,5-16.06-3c0,0,6.06,14,22.06,5l7-18h0l20-6s27.27,13,25.63-4c0,0,60.37-9,74.37-33,.5-.86,0-.78,0-.78L846.07,755S865,756,870,732c0,0-9.7-46.64-26.35-66.82s-.48-.85-.48-.85S825,643,812,645Z" transform="translate(-104.11 -165.4)"/><path class="cls-3" d="M723.62,784.66s-12.54,1.46-22.08,9.4L691,822s-8,3-14-3c0,0,2.72,12.43,19.79,5.6L698,819l9-20s15-10,21-10.21C731,788.68,723.62,784.66,723.62,784.66Z" transform="translate(-104.11 -165.4)"/><path class="cls-3" d="M656,813s10,9,17,2l9.14-27s12.42-10.71,17.64-10.84L702,780l-16.23,11S677,812,677,819C677,819,666,827,656,813Z" transform="translate(-104.11 -165.4)"/><path class="cls-3" d="M649.57,669S661,641,627,624l30.38-10.19S664,615,672,633c0,0,3.73,21.73-9.7,32.75A16.17,16.17,0,0,0,661,668l-10,7Z" transform="translate(-104.11 -165.4)"/><path class="cls-3" d="M595,681s-18.69,12-49.34,9l-6.16,11s36.17,4.65,67.84-7.69l1.93-2.94S598,685,595,681Z" transform="translate(-104.11 -165.4)"/><path class="cls-3" d="M620,677c-.66-.75,6,14-10,26,0,0-12,13,11,19,0,0-20.34-5.23-1.44-24.55C620,697,627,685,620,677Z" transform="translate(-104.11 -165.4)"/><path class="cls-3" d="M628,659.24c-1.13-.55,21,16.76,2,39.76,0,0-4,20.72,26,12.86,0,0-24,1.14-20.37-10C635.93,701,655,672.47,628,659.24Z" transform="translate(-104.11 -165.4)"/><path class="cls-3" d="M679.5,695.55c.5.45,9.49,28.81-44.51,27.63,0,0,51,9.82,48-25.18Z" transform="translate(-104.11 -165.4)"/><path class="cls-3" d="M646.82,663.48s-3.16,26.52,28,17.52C674.83,681,652,690,646.82,663.48Z" transform="translate(-104.11 -165.4)"/><path class="cls-3" d="M629,724c-1,0-6,3-6,10Z" transform="translate(-104.11 -165.4)"/><path class="cls-3" d="M712,679s-5,1-3,10Z" transform="translate(-104.11 -165.4)"/><path class="cls-3" d="M526.52,642.31S552,677,530,697c0,0-18.2,13.49-69.6,4.24,0,0,38.6,19.76,75.6,2.76C536,704,569,670.62,526.52,642.31Z" transform="translate(-104.11 -165.4)"/><path class="cls-3" d="M408.23,649C408,650,433,662,433,662s14.82,10.09,13.41,10.55S418,660,418,660Z" transform="translate(-104.11 -165.4)"/><path class="cls-3" d="M389.37,629.84S389,632,381,632c0,0,24,54,21,98,0,0-43,29-126,9l-2,1s10.67,21.58,52.33,18.79S326,758,326,758s90,3,95-31C421,727,418.74,668.69,389.37,629.84Z" transform="translate(-104.11 -165.4)"/><path class="cls-3" d="M306.61,683.29l-7.79,2.34L296,736s-4.67,5-6.33,5c0,0,7.33,4,14.33-4l-1-2,5-50Z" transform="translate(-104.11 -165.4)"/><path class="cls-3" d="M305,578s3.89,10-3.69,10c-.31,0,6.69,2,7.69-5S305,578,305,578Z" transform="translate(-104.11 -165.4)"/><path class="cls-3" d="M305.22,644.77c-.22-.77-.56-56.27-.56-56.27h.77L308,643Z" transform="translate(-104.11 -165.4)"/><path class="cls-3" d="M198,464c1-1,6-3,7-12,0,0-22.11-27.61-28.06-29.3l-6.94.49,3,9.15s.82-5.33,2-6.33l9,7,17,20s-1,7-5,10Z" transform="translate(-104.11 -165.4)"/><polygon class="cls-3" points="79.89 287.6 71.04 279.97 71.39 290.1 79.89 287.6"/><polygon class="cls-3" points="50.94 280.99 52.39 286.1 48.39 295.1 45.39 294.1 50.94 280.99"/><polygon class="cls-3" points="71.89 255.6 71.77 254.95 53.89 154.6 45.39 152.91 65.89 257.6 71.89 255.6"/><path class="cls-3" d="M403.16,615.59,404,612l-2.92-6.7-39.88-.9-53,20.6.16,3.39s13.42-8.67,57.55-5c0,0-4.27-12.91-1.53-10.86C365,613,396.31,617.18,403.16,615.59Z" transform="translate(-104.11 -165.4)"/><path class="cls-3" d="M301.3,627.5s-24.21,11-24.25,10.26-1.92-6.76-11.48-12.26L267,624s-2-9,15-15l-2.67-.53S261,613.26,261,623.13c0,0-13,13.87-43,3.87,0,0,8,9,32,7l9.65-4s6.35,3,8.35,15l-47,23,3,17,43-16h4l7.5-1s9.11-29.67,22.81-35.83Z" transform="translate(-104.11 -165.4)"/><path class="cls-3" d="M144,706s-21,10-35-9c0,0-2.25-27.4-3-53s0-49.42,0-42.26c0,.26-.5-14,9.25-14.37,0,0,16.13-2,23.89,68.36C146,718,144,706,144,706Z" transform="translate(-104.11 -165.4)"/><path class="cls-3" d="M175.94,684.25s-19.69,12.25-32.32,11.5l.88,10.75L172,693Z" transform="translate(-104.11 -165.4)"/><path class="cls-3" d="M578.5,832.5s11-15-6-37a35.48,35.48,0,0,0-5.12,1.48s7.47,12.46,5.3,41Z" transform="translate(-104.11 -165.4)"/><path class="cls-3" d="M507,773s-8-3-10,40a37.89,37.89,0,0,1-34.25,2.14c-18.75-8.14-.71-.22-.71-.22S465,803,462,797c0,0,22.93-3.93,30-11,1-1-.17-.8-.17-.8L468,787.67s0-2.67,0-3.67S491,781,507,773Z" transform="translate(-104.11 -165.4)"/><path class="cls-3" d="M641.38,767.63,640,761l-13,10,1,8s12.77-5.2,13.38-11.1" transform="translate(-104.11 -165.4)"/><path class="cls-3" d="M412.89,789.28l-1.35-2.83L392,807s1.5,4.5,2,5,18.89-22.5,18.89-22.5" transform="translate(-104.11 -165.4)"/><path class="cls-3" d="M363,800s-6.91,2.32-9,2.66c0,0,1,3.34,0,5.34l9-3v-5Z" transform="translate(-104.11 -165.4)"/></g><g id="Layer_9" data-name="Layer 9"><path class="cls-21" d="M598,191c-.83-.55-21,1-30,25,0,0,10,4,23-8C591,208,604,195,598,191Z" transform="translate(-104.11 -165.4)"/><path class="cls-22" d="M564.36,232.49c-3,3.15-11.35,12.15-13.36,29.51-1,8.67,1,20,5,33,.12.39,0,.41,0,0-.17-6.59-3.65-19.27-2-32,1.39-10.74,6.25-21.88,10.88-30.13A.32.32,0,0,0,564.36,232.49Z" transform="translate(-104.11 -165.4)"/><path class="cls-21" d="M431,604s-12,7-10,13c0,0,94,10,100,13C521,630,480,607,431,604Z" transform="translate(-104.11 -165.4)"/><path class="cls-21" d="M509,641s-11-1-13,4c0,0,12-2,15,1C511,646,516,644,509,641Z" transform="translate(-104.11 -165.4)"/><path class="cls-23" d="M421,603s-8,11-7,14l-9-2s-.56-11.12,6.25-15.52C412,599,421,603,421,603Z" transform="translate(-104.11 -165.4)"/><path class="cls-21" d="M231.84,618s-3.84,9,.16,9C232,627,210.69,626,231.84,618Z" transform="translate(-104.11 -165.4)"/><path class="cls-21" d="M173,650c0-1,17-12,17-12l-26,12Z" transform="translate(-104.11 -165.4)"/><path class="cls-21" d="M324,567s24-3,30,1l-34,7S319,571,324,567Z" transform="translate(-104.11 -165.4)"/><path class="cls-21" d="M180,576l-11.87,4.5A12.17,12.17,0,0,1,174,586Z" transform="translate(-104.11 -165.4)"/><g class="cls-24"><path class="cls-25" d="M308.79,635.29C314.06,631,318.94,629,325,629a26.05,26.05,0,0,0-16.44.48C308.64,631.66,308.72,633.63,308.79,635.29Z" transform="translate(-104.11 -165.4)"/><path class="cls-25" d="M300.48,634.51c-6.76,4.46-11.75,11.74-13.41,26.86A105.43,105.43,0,0,1,301,642.66C300.75,640.1,300.59,637.36,300.48,634.51Z" transform="translate(-104.11 -165.4)"/><path class="cls-25" d="M286,663l1-1c0-.22,0-.42.07-.64C286.49,662.29,286.12,662.88,286,663Z" transform="translate(-104.11 -165.4)"/></g><path class="cls-21" d="M282,681s-20,11-20,44C262,725,258,673,282,681Z" transform="translate(-104.11 -165.4)"/><path class="cls-21" d="M500,759s-18,0-28,5C472,764,481,752,500,759Z" transform="translate(-104.11 -165.4)"/><path class="cls-21" d="M806,721s-44,16-63,45l-9-1S776,719,806,721Z" transform="translate(-104.11 -165.4)"/><path class="cls-21" d="M778,663s-6,29,22,50C800,713,755,704,778,663Z" transform="translate(-104.11 -165.4)"/><polygon class="cls-26" points="36.89 158.6 34.89 158.6 50.89 256.6 52.89 256.6 38.89 159.6 36.89 158.6"/><polygon class="cls-26" points="51.89 258.6 49.89 258.6 52.89 286.6 54.89 287.6 51.89 258.6"/><path class="cls-26" d="M145.77,456.54S150,438,152,436l-1-9a70.71,70.71,0,0,0-6,29Z" transform="translate(-104.11 -165.4)"/><path class="cls-21" d="M780.57,482.92,778,483" transform="translate(-104.11 -165.4)"/><path class="cls-21" d="M759,524l-18,23-13,1-10,14-2-1,11-16,12-2,14-20S757,523,759,524Z" transform="translate(-104.11 -165.4)"/></g></g></svg>